<mxfile host="app.diagrams.net" modified="2023-12-24T07:27:41.632Z" agent="Mozilla/5.0 (Windows NT 10.0; Win64; x64) AppleWebKit/537.36 (KHTML, like Gecko) Chrome/120.0.0.0 Safari/537.36" etag="ci3XY7ZPDaDNsnfuoqZq" version="22.1.11" type="github">
  <diagram name="第 1 页" id="m1-dV2_KFxs5exQTDVwf">
    <mxGraphModel dx="2074" dy="1132" grid="1" gridSize="10" guides="1" tooltips="1" connect="1" arrows="1" fold="1" page="1" pageScale="1" pageWidth="827" pageHeight="1169" math="0" shadow="0">
      <root>
        <mxCell id="0" />
        <mxCell id="1" parent="0" />
        <mxCell id="02yJ9IpSOkvYp0JPiAUK-52" value="" style="rounded=0;whiteSpace=wrap;html=1;fillColor=#f5f5f5;fontColor=#333333;strokeColor=#666666;" vertex="1" parent="1">
          <mxGeometry x="50" y="553" width="680" height="340" as="geometry" />
        </mxCell>
        <mxCell id="02yJ9IpSOkvYp0JPiAUK-1" value="" style="rounded=0;whiteSpace=wrap;html=1;fillColor=#f5f5f5;fontColor=#333333;strokeColor=#666666;" vertex="1" parent="1">
          <mxGeometry x="50" y="120" width="680" height="390" as="geometry" />
        </mxCell>
        <mxCell id="02yJ9IpSOkvYp0JPiAUK-2" value="" style="rounded=0;whiteSpace=wrap;html=1;fillColor=#cce5ff;strokeColor=#36393d;" vertex="1" parent="1">
          <mxGeometry x="80" y="170" width="630" height="320" as="geometry" />
        </mxCell>
        <mxCell id="02yJ9IpSOkvYp0JPiAUK-3" value="MySQL" style="rounded=0;whiteSpace=wrap;html=1;fillColor=#f9f7ed;strokeColor=#36393d;" vertex="1" parent="1">
          <mxGeometry x="120" y="210" width="70" height="50" as="geometry" />
        </mxCell>
        <mxCell id="02yJ9IpSOkvYp0JPiAUK-4" value="Redis" style="rounded=0;whiteSpace=wrap;html=1;fillColor=#f9f7ed;strokeColor=#36393d;" vertex="1" parent="1">
          <mxGeometry x="120" y="270" width="70" height="50" as="geometry" />
        </mxCell>
        <mxCell id="02yJ9IpSOkvYp0JPiAUK-6" value="XXL-Job" style="rounded=0;whiteSpace=wrap;html=1;fillColor=#f9f7ed;strokeColor=#36393d;" vertex="1" parent="1">
          <mxGeometry x="260" y="210" width="70" height="50" as="geometry" />
        </mxCell>
        <mxCell id="02yJ9IpSOkvYp0JPiAUK-7" value="Nginx" style="rounded=0;whiteSpace=wrap;html=1;fillColor=#f9f7ed;strokeColor=#36393d;" vertex="1" parent="1">
          <mxGeometry x="260" y="270" width="70" height="50" as="geometry" />
        </mxCell>
        <mxCell id="02yJ9IpSOkvYp0JPiAUK-9" value="" style="rounded=0;whiteSpace=wrap;html=1;fillColor=#cce5ff;strokeColor=#36393d;" vertex="1" parent="1">
          <mxGeometry x="230" y="590" width="490" height="240" as="geometry" />
        </mxCell>
        <mxCell id="02yJ9IpSOkvYp0JPiAUK-10" value="OpenStack-Manager" style="rounded=0;whiteSpace=wrap;html=1;fillColor=#b0e3e6;strokeColor=#0e8088;" vertex="1" parent="1">
          <mxGeometry x="410" y="613" width="120" height="60" as="geometry" />
        </mxCell>
        <mxCell id="02yJ9IpSOkvYp0JPiAUK-50" style="edgeStyle=orthogonalEdgeStyle;rounded=0;orthogonalLoop=1;jettySize=auto;html=1;entryX=1;entryY=0.5;entryDx=0;entryDy=0;" edge="1" parent="1" source="02yJ9IpSOkvYp0JPiAUK-11" target="02yJ9IpSOkvYp0JPiAUK-10">
          <mxGeometry relative="1" as="geometry" />
        </mxCell>
        <mxCell id="02yJ9IpSOkvYp0JPiAUK-11" value="Openstack-Compute1" style="ellipse;whiteSpace=wrap;html=1;fillColor=#b1ddf0;strokeColor=#10739e;" vertex="1" parent="1">
          <mxGeometry x="580" y="713" width="120" height="80" as="geometry" />
        </mxCell>
        <mxCell id="02yJ9IpSOkvYp0JPiAUK-49" style="edgeStyle=orthogonalEdgeStyle;rounded=0;orthogonalLoop=1;jettySize=auto;html=1;entryX=0;entryY=0.5;entryDx=0;entryDy=0;" edge="1" parent="1" source="02yJ9IpSOkvYp0JPiAUK-12" target="02yJ9IpSOkvYp0JPiAUK-10">
          <mxGeometry relative="1" as="geometry" />
        </mxCell>
        <mxCell id="02yJ9IpSOkvYp0JPiAUK-12" value="Openstack-Compute2" style="ellipse;whiteSpace=wrap;html=1;fillColor=#b1ddf0;strokeColor=#10739e;" vertex="1" parent="1">
          <mxGeometry x="250" y="713" width="120" height="80" as="geometry" />
        </mxCell>
        <mxCell id="02yJ9IpSOkvYp0JPiAUK-14" value="基础服务" style="text;html=1;strokeColor=#82b366;fillColor=#d5e8d4;align=center;verticalAlign=middle;whiteSpace=wrap;rounded=0;gradientColor=#97d077;" vertex="1" parent="1">
          <mxGeometry x="200" y="460" width="60" height="30" as="geometry" />
        </mxCell>
        <mxCell id="02yJ9IpSOkvYp0JPiAUK-20" style="edgeStyle=orthogonalEdgeStyle;rounded=0;orthogonalLoop=1;jettySize=auto;html=1;entryX=0.5;entryY=0;entryDx=0;entryDy=0;" edge="1" parent="1" source="02yJ9IpSOkvYp0JPiAUK-15" target="02yJ9IpSOkvYp0JPiAUK-10">
          <mxGeometry relative="1" as="geometry" />
        </mxCell>
        <mxCell id="02yJ9IpSOkvYp0JPiAUK-15" value="Erisl-System" style="ellipse;whiteSpace=wrap;html=1;fillColor=#fad9d5;strokeColor=#ae4132;" vertex="1" parent="1">
          <mxGeometry x="410" y="212.5" width="120" height="235" as="geometry" />
        </mxCell>
        <mxCell id="02yJ9IpSOkvYp0JPiAUK-16" value="业务程序" style="text;html=1;strokeColor=#82b366;fillColor=#d5e8d4;align=center;verticalAlign=middle;whiteSpace=wrap;rounded=0;gradientColor=#97d077;" vertex="1" parent="1">
          <mxGeometry x="414" y="460" width="60" height="30" as="geometry" />
        </mxCell>
        <mxCell id="02yJ9IpSOkvYp0JPiAUK-17" value="OnlyOffice" style="rounded=0;whiteSpace=wrap;html=1;fillColor=#f9f7ed;strokeColor=#36393d;" vertex="1" parent="1">
          <mxGeometry x="550" y="220" width="70" height="50" as="geometry" />
        </mxCell>
        <mxCell id="02yJ9IpSOkvYp0JPiAUK-18" value="Whisper" style="rounded=0;whiteSpace=wrap;html=1;fillColor=#f9f7ed;strokeColor=#36393d;" vertex="1" parent="1">
          <mxGeometry x="550" y="390" width="70" height="50" as="geometry" />
        </mxCell>
        <mxCell id="02yJ9IpSOkvYp0JPiAUK-21" value="Code-server" style="rounded=0;whiteSpace=wrap;html=1;fillColor=#f9f7ed;strokeColor=#36393d;" vertex="1" parent="1">
          <mxGeometry x="120" y="330" width="70" height="50" as="geometry" />
        </mxCell>
        <mxCell id="02yJ9IpSOkvYp0JPiAUK-22" value="KKFileview" style="rounded=0;whiteSpace=wrap;html=1;fillColor=#f9f7ed;strokeColor=#36393d;" vertex="1" parent="1">
          <mxGeometry x="260" y="330" width="70" height="50" as="geometry" />
        </mxCell>
        <mxCell id="02yJ9IpSOkvYp0JPiAUK-23" value="Minio" style="rounded=0;whiteSpace=wrap;html=1;fillColor=#f9f7ed;strokeColor=#36393d;" vertex="1" parent="1">
          <mxGeometry x="120" y="390" width="70" height="50" as="geometry" />
        </mxCell>
        <mxCell id="02yJ9IpSOkvYp0JPiAUK-24" value="Portainer" style="rounded=0;whiteSpace=wrap;html=1;fillColor=#f9f7ed;strokeColor=#36393d;" vertex="1" parent="1">
          <mxGeometry x="550" y="305" width="70" height="50" as="geometry" />
        </mxCell>
        <mxCell id="02yJ9IpSOkvYp0JPiAUK-25" value="Mosquitto" style="rounded=0;whiteSpace=wrap;html=1;fillColor=#f9f7ed;strokeColor=#36393d;" vertex="1" parent="1">
          <mxGeometry x="260" y="390" width="70" height="50" as="geometry" />
        </mxCell>
        <mxCell id="02yJ9IpSOkvYp0JPiAUK-30" value="字幕合成" style="text;html=1;strokeColor=none;fillColor=none;align=center;verticalAlign=middle;whiteSpace=wrap;rounded=0;" vertex="1" parent="1">
          <mxGeometry x="630" y="400" width="60" height="30" as="geometry" />
        </mxCell>
        <mxCell id="02yJ9IpSOkvYp0JPiAUK-32" value="容器监控" style="text;html=1;strokeColor=none;fillColor=none;align=center;verticalAlign=middle;whiteSpace=wrap;rounded=0;" vertex="1" parent="1">
          <mxGeometry x="630" y="315" width="60" height="30" as="geometry" />
        </mxCell>
        <mxCell id="02yJ9IpSOkvYp0JPiAUK-33" value="Office 在线预览" style="text;html=1;strokeColor=none;fillColor=none;align=center;verticalAlign=middle;whiteSpace=wrap;rounded=0;" vertex="1" parent="1">
          <mxGeometry x="630" y="230" width="60" height="30" as="geometry" />
        </mxCell>
        <mxCell id="02yJ9IpSOkvYp0JPiAUK-34" value="消息中间件" style="text;html=1;strokeColor=none;fillColor=none;align=center;verticalAlign=middle;whiteSpace=wrap;rounded=0;" vertex="1" parent="1">
          <mxGeometry x="340" y="400" width="70" height="30" as="geometry" />
        </mxCell>
        <mxCell id="02yJ9IpSOkvYp0JPiAUK-35" value="文件预览" style="text;html=1;strokeColor=none;fillColor=none;align=center;verticalAlign=middle;whiteSpace=wrap;rounded=0;" vertex="1" parent="1">
          <mxGeometry x="330" y="345" width="70" height="30" as="geometry" />
        </mxCell>
        <mxCell id="02yJ9IpSOkvYp0JPiAUK-36" value="发布服务器" style="text;html=1;strokeColor=none;fillColor=none;align=center;verticalAlign=middle;whiteSpace=wrap;rounded=0;" vertex="1" parent="1">
          <mxGeometry x="340" y="285" width="70" height="30" as="geometry" />
        </mxCell>
        <mxCell id="02yJ9IpSOkvYp0JPiAUK-37" value="定时任务" style="text;html=1;strokeColor=none;fillColor=none;align=center;verticalAlign=middle;whiteSpace=wrap;rounded=0;" vertex="1" parent="1">
          <mxGeometry x="340" y="220" width="70" height="30" as="geometry" />
        </mxCell>
        <mxCell id="02yJ9IpSOkvYp0JPiAUK-38" value="数据库" style="text;html=1;strokeColor=none;fillColor=none;align=center;verticalAlign=middle;whiteSpace=wrap;rounded=0;" vertex="1" parent="1">
          <mxGeometry x="190" y="220" width="70" height="30" as="geometry" />
        </mxCell>
        <mxCell id="02yJ9IpSOkvYp0JPiAUK-39" value="内存服务" style="text;html=1;strokeColor=none;fillColor=none;align=center;verticalAlign=middle;whiteSpace=wrap;rounded=0;" vertex="1" parent="1">
          <mxGeometry x="190" y="280" width="70" height="30" as="geometry" />
        </mxCell>
        <mxCell id="02yJ9IpSOkvYp0JPiAUK-40" value="代码预览" style="text;html=1;strokeColor=none;fillColor=none;align=center;verticalAlign=middle;whiteSpace=wrap;rounded=0;" vertex="1" parent="1">
          <mxGeometry x="190" y="340" width="70" height="30" as="geometry" />
        </mxCell>
        <mxCell id="02yJ9IpSOkvYp0JPiAUK-41" value="对象存储" style="text;html=1;strokeColor=none;fillColor=none;align=center;verticalAlign=middle;whiteSpace=wrap;rounded=0;" vertex="1" parent="1">
          <mxGeometry x="190" y="400" width="70" height="30" as="geometry" />
        </mxCell>
        <mxCell id="02yJ9IpSOkvYp0JPiAUK-42" value="基础服务" style="text;html=1;strokeColor=#82b366;fillColor=#d5e8d4;align=center;verticalAlign=middle;whiteSpace=wrap;rounded=0;gradientColor=#97d077;" vertex="1" parent="1">
          <mxGeometry x="580" y="460" width="60" height="30" as="geometry" />
        </mxCell>
        <mxCell id="02yJ9IpSOkvYp0JPiAUK-51" style="edgeStyle=orthogonalEdgeStyle;rounded=0;orthogonalLoop=1;jettySize=auto;html=1;entryX=0.5;entryY=1;entryDx=0;entryDy=0;" edge="1" parent="1" source="02yJ9IpSOkvYp0JPiAUK-13" target="02yJ9IpSOkvYp0JPiAUK-10">
          <mxGeometry relative="1" as="geometry" />
        </mxCell>
        <mxCell id="02yJ9IpSOkvYp0JPiAUK-13" value="Openstack-Compute3" style="ellipse;whiteSpace=wrap;html=1;fillColor=#b1ddf0;strokeColor=#10739e;" vertex="1" parent="1">
          <mxGeometry x="410" y="713" width="120" height="80" as="geometry" />
        </mxCell>
        <mxCell id="02yJ9IpSOkvYp0JPiAUK-53" value="应用服务器" style="text;html=1;strokeColor=#6c8ebf;fillColor=#dae8fc;align=center;verticalAlign=middle;whiteSpace=wrap;rounded=0;" vertex="1" parent="1">
          <mxGeometry x="50" y="120" width="80" height="30" as="geometry" />
        </mxCell>
        <mxCell id="02yJ9IpSOkvYp0JPiAUK-54" value="虚拟机环境服务器" style="text;html=1;strokeColor=#6c8ebf;fillColor=#dae8fc;align=center;verticalAlign=middle;whiteSpace=wrap;rounded=0;" vertex="1" parent="1">
          <mxGeometry x="50" y="553" width="100" height="30" as="geometry" />
        </mxCell>
        <mxCell id="02yJ9IpSOkvYp0JPiAUK-55" value="Linux-Rocky8.9-x86" style="text;html=1;strokeColor=#6c8ebf;fillColor=#dae8fc;align=center;verticalAlign=middle;whiteSpace=wrap;rounded=0;" vertex="1" parent="1">
          <mxGeometry x="580" y="120" width="150" height="30" as="geometry" />
        </mxCell>
        <mxCell id="02yJ9IpSOkvYp0JPiAUK-57" value="Linux-Openeuler-aarch64" style="text;html=1;strokeColor=#6c8ebf;fillColor=#dae8fc;align=center;verticalAlign=middle;whiteSpace=wrap;rounded=0;" vertex="1" parent="1">
          <mxGeometry x="590" y="553" width="140" height="30" as="geometry" />
        </mxCell>
        <mxCell id="02yJ9IpSOkvYp0JPiAUK-58" value="Docker" style="text;html=1;strokeColor=#82b366;fillColor=#d5e8d4;align=center;verticalAlign=middle;whiteSpace=wrap;rounded=0;" vertex="1" parent="1">
          <mxGeometry x="80" y="170" width="80" height="30" as="geometry" />
        </mxCell>
      </root>
    </mxGraphModel>
  </diagram>
</mxfile>
